<svg aria-hidden="true" style="position: absolute; width: 0; height: 0; overflow: hidden;" version="1.1" xmlns="http://www.w3.org/2000/svg" xmlns:xlink="http://www.w3.org/1999/xlink">
<defs>
<symbol id="icon-phone" viewBox="0 0 24 24">
<path d="M16 3h-8c-1.1 0-2 0.9-2 2v14c0 1.1 0.9 2 2 2h8c1.1 0 2-0.9 2-2v-14c0-1.1-0.9-2-2-2zM13 20h-2v-2h2v2zM16 17h-8v-12h8v12z"></path>
</symbol>
<symbol id="icon-mail" viewBox="0 0 32 32">
<path d="M28 5h-24c-2.209 0-4 1.792-4 4v13c0 2.209 1.791 4 4 4h24c2.209 0 4-1.791 4-4v-13c0-2.208-1.791-4-4-4zM2 10.25l6.999 5.25-6.999 5.25v-10.5zM30 22c0 1.104-0.898 2-2 2h-24c-1.103 0-2-0.896-2-2l7.832-5.875 4.368 3.277c0.533 0.398 1.166 0.6 1.8 0.6 0.633 0 1.266-0.201 1.799-0.6l4.369-3.277 7.832 5.875zM30 20.75l-7-5.25 7-5.25v10.5zM17.199 18.602c-0.349 0.262-0.763 0.4-1.199 0.4s-0.851-0.139-1.2-0.4l-12.8-9.602c0-1.103 0.897-2 2-2h24c1.102 0 2 0.897 2 2l-12.801 9.602z"></path>
</symbol>
<symbol id="icon-linkedin" viewBox="0 0 32 32">
<path fill="#0206d1" style="fill: var(--color1, #0206d1)" d="M16 2.667c-7.364 0-13.333 5.97-13.333 13.333s5.97 13.333 13.333 13.333v0c7.364 0 13.333-5.97 13.333-13.333s-5.97-13.333-13.333-13.333v0z"></path>
<path fill="#fff" style="fill: var(--color2, #fff)" d="M9.333 12.667h2.667v10h-2.667zM10.659 11.333h-0.015c-0.796 0-1.311-0.593-1.311-1.334 0-0.757 0.531-1.333 1.341-1.333 0.811 0 1.311 0.576 1.326 1.333 0 0.741-0.515 1.334-1.341 1.334zM23.333 16.333c0-2.025-1.642-3.667-3.667-3.667v0c-0 0-0 0-0.001 0-1.236 0-2.329 0.613-2.992 1.551l-0.008 0.011v-1.563h-2.667v10h2.667v-5.333c0-1.105 0.895-2 2-2s2 0.895 2 2v0 5.333h2.667v-6.333z"></path>
</symbol>
<symbol id="icon-vue-js" viewBox="0 0 32 32">
<path fill="#81c784" style="fill: var(--color1, #81c784)" d="M15.991 11.333l-3.502-6h-10.507l14.009 24 14.009-24h-10.507z"></path>
<path fill="#455a64" style="fill: var(--color2, #455a64)" d="M19.493 5.333l-3.502 6-3.502-6h-5.059l8.561 14.667 8.561-14.667z"></path>
</symbol>
<symbol id="icon-visual-studio-code" viewBox="0 0 32 32">
<path fill="#29b6f6" style="fill: var(--color3, #29b6f6)" d="M29.333 7.407v17.187c0 0.847-0.527 1.6-1.32 1.88l-5.88 2.76 0.533-7.233v-12l-0.533-7.233 5.88 2.76c0.776 0.282 1.32 1.013 1.32 1.871 0 0.003 0 0.006-0 0.009v-0z"></path>
<path fill="#0277bd" style="fill: var(--color4, #0277bd)" d="M6 22.597l16.667-12.597v-6.431c0-0.799-0.988-1.172-1.517-0.573l-18.045 16.497c-0.264 0.244-0.429 0.593-0.429 0.98 0 0.42 0.194 0.795 0.498 1.039l0.003 0.002s0.883 0.821 1.202 1.049c0.491 0.35 1.135 0.39 1.621 0.034z"></path>
<path fill="#0288d1" style="fill: var(--color5, #0288d1)" d="M6 9.403l16.667 12.597v6.431c0 0.799-0.988 1.172-1.517 0.573l-18.045-16.497c-0.264-0.244-0.429-0.593-0.429-0.98 0-0.42 0.194-0.795 0.498-1.039l0.003-0.002s0.883-0.821 1.202-1.049c0.491-0.35 1.135-0.39 1.621-0.034z"></path>
</symbol>
<symbol id="icon-sass" viewBox="0 0 32 32">
<path fill="#f06292" style="fill: var(--color6, #f06292)" d="M26.578 17.304c-0.968 0-1.882 0.229-2.692 0.634l0.035-0.016c-0.272-0.543-0.548-1.021-0.594-1.377-0.054-0.415-0.117-0.663-0.051-1.157s0.351-1.194 0.347-1.247c-0.004-0.053-0.064-0.304-0.655-0.309s-1.097 0.114-1.157 0.27-0.173 0.507-0.244 0.874c-0.103 0.536-1.181 2.449-1.792 3.449-0.2-0.391-0.37-0.735-0.405-1.007-0.054-0.415-0.117-0.663-0.051-1.157s0.351-1.194 0.347-1.247c-0.004-0.053-0.064-0.304-0.655-0.309s-1.097 0.114-1.157 0.27-0.123 0.521-0.244 0.874c-0.121 0.353-1.553 3.543-1.928 4.37-0.191 0.421-0.357 0.76-0.475 0.991l-0.001-0.001-0.019 0.041c-0.101 0.197-0.16 0.305-0.16 0.305l0.002 0.004c-0.080 0.145-0.165 0.279-0.207 0.279-0.029 0-0.089-0.385 0.013-0.913 0.213-1.107 0.725-2.832 0.72-2.892-0.003-0.031 0.095-0.331-0.334-0.489-0.417-0.153-0.566 0.102-0.604 0.103-0.037 0.001-0.064 0.090-0.064 0.090s0.465-1.941-0.887-1.941c-0.845 0-2.016 0.925-2.593 1.763-0.364 0.199-1.143 0.624-1.969 1.078l-0.949 0.522-0.063-0.069c-1.639-1.749-4.669-2.985-4.541-5.337 0.047-0.855 0.344-3.105 5.822-5.835 4.487-2.236 8.080-1.621 8.701-0.257 0.887 1.949-1.92 5.569-6.58 6.092-1.775 0.199-2.711-0.489-2.943-0.745-0.245-0.27-0.281-0.282-0.373-0.231-0.149 0.083-0.055 0.321 0 0.463 0.139 0.362 0.71 1.004 1.683 1.324 0.857 0.281 2.941 0.435 5.462-0.54 2.824-1.092 5.029-4.131 4.381-6.67-0.659-2.583-4.941-3.432-8.995-1.992-2.415 0.857-5.027 2.203-6.905 3.959-2.233 2.088-2.589 3.906-2.442 4.665 0.521 2.699 4.241 4.456 5.73 5.758l-0.205 0.113c-0.747 0.369-3.582 1.853-4.291 3.421-0.805 1.778 0.128 3.054 0.745 3.226 1.913 0.532 3.875-0.425 4.931-1.999s0.926-3.621 0.442-4.556l-0.019-0.035 0.584-0.345c0.38-0.223 0.753-0.431 1.077-0.607-0.181 0.496-0.314 1.091-0.383 1.951-0.081 1.009 0.333 2.314 0.874 2.827 0.239 0.226 0.525 0.231 0.707 0.231 0.63 0 0.917-0.524 1.234-1.144 0.388-0.76 0.733-1.645 0.733-1.645s-0.432 2.391 0.745 2.391c0.429 0 0.861-0.557 1.053-0.84l0.001 0.005 0.033-0.055c0.045-0.068 0.070-0.111 0.070-0.111l0.002-0.013c0.27-0.451 0.646-1.141 1.005-1.841l0.124-0.267c0.741-1.455 1.452-3.277 1.452-3.277s0.066 0.445 0.283 1.183c0.127 0.433 0.398 0.913 0.612 1.373-0.172 0.239-0.277 0.375-0.277 0.375l0.003 0.007c-0.137 0.183-0.291 0.379-0.453 0.571-0.585 0.697-1.282 1.493-1.375 1.722-0.11 0.271-0.084 0.469 0.129 0.63 0.155 0.117 0.431 0.135 0.72 0.116 0.394-0.022 0.761-0.11 1.099-0.253l-0.021 0.008c0.354-0.127 0.66-0.291 0.937-0.494l-0.010 0.007c0.574-0.422 0.92-1.025 0.887-1.825-0.019-0.441-0.159-0.877-0.337-1.289l0.157-0.227c0.905-1.323 1.607-2.776 1.607-2.776s0.066 0.445 0.283 1.183c0.109 0.373 0.326 0.78 0.521 1.179-0.851 0.691-1.378 1.495-1.561 2.021-0.339 0.975-0.073 1.416 0.424 1.517 0.225 0.045 0.544-0.058 0.783-0.159 0.378-0.128 0.706-0.3 1.001-0.516l-0.010 0.007c0.574-0.422 1.126-1.013 1.093-1.812-0.015-0.364-0.114-0.725-0.248-1.072 0.721-0.301 1.655-0.467 2.844-0.329 2.551 0.298 3.051 1.891 2.956 2.557s-0.631 1.033-0.81 1.144c-0.179 0.111-0.233 0.149-0.219 0.231 0.022 0.119 0.105 0.115 0.257 0.089 0.21-0.035 1.339-0.542 1.388-1.773 0.061-1.564-1.436-3.28-4.087-3.266zM6.913 23.933c-0.845 0.922-2.025 1.27-2.532 0.977-0.547-0.317-0.33-1.674 0.707-2.653 0.632-0.596 1.448-1.145 1.989-1.483l0.524-0.315 0.057-0.032-0.001-0.001 0.131-0.079c0.378 1.393 0.012 2.619-0.875 3.586zM13.070 19.749c-0.294 0.717-0.91 2.553-1.285 2.455-0.322-0.085-0.518-1.48-0.064-2.853 0.228-0.691 0.716-1.517 1.003-1.838 0.461-0.516 0.969-0.685 1.093-0.475 0.157 0.267-0.561 2.262-0.746 2.712zM18.156 22.175c-0.125 0.065-0.239 0.106-0.292 0.075-0.039-0.023 0.051-0.109 0.051-0.109s0.636-0.685 0.887-0.996c0.146-0.181 0.315-0.397 0.499-0.637l0.002 0.071c-0.001 0.82-0.793 1.373-1.147 1.596zM22.074 21.282c-0.093-0.066-0.077-0.28 0.229-0.947 0.12-0.262 0.395-0.703 0.871-1.124 0.055 0.173 0.089 0.339 0.088 0.494-0.006 1.032-0.742 1.417-1.187 1.577z"></path>
</symbol>
<symbol id="icon-react-native" viewBox="0 0 32 32">
<path fill="#80deea" style="fill: var(--color7, #80deea)" d="M16 22.667c-8.6 0-15.333-2.933-15.333-6.667s6.733-6.667 15.333-6.667 15.333 2.933 15.333 6.667-6.733 6.667-15.333 6.667zM16 10.667c-8.4 0-14 2.733-14 5.333s5.6 5.333 14 5.333 14-2.733 14-5.333c0-2.6-5.6-5.333-14-5.333z"></path>
<path fill="#80deea" style="fill: var(--color7, #80deea)" d="M10.067 29.733c-0.667 0-1.2-0.133-1.733-0.467-3.267-1.867-2.4-9.133 1.867-16.6 2-3.467 4.467-6.4 6.867-8.267 2.6-2 4.933-2.6 6.533-1.667 1.667 0.933 2.267 3.267 1.867 6.533-0.4 3.067-1.733 6.667-3.733 10.133s-4.467 6.4-6.867 8.267c-1.733 1.333-3.4 2.067-4.8 2.067zM21.933 3.6c-1.067 0-2.467 0.6-4 1.8-2.267 1.8-4.6 4.6-6.533 7.933-4.2 7.267-4.6 13.533-2.4 14.8 1.133 0.667 3 0.067 5.067-1.533 2.267-1.8 4.6-4.6 6.533-7.933s3.2-6.733 3.6-9.6c0.333-2.667-0.067-4.533-1.2-5.2-0.333-0.133-0.667-0.267-1.067-0.267z"></path>
<path fill="#80deea" style="fill: var(--color7, #80deea)" d="M22 29.733c-3.333 0-8.133-4.067-11.733-10.4-4.333-7.467-5.2-14.733-1.933-16.6s9.133 2.467 13.467 9.933c2 3.467 3.333 7.067 3.733 10.133 0.467 3.267-0.2 5.533-1.867 6.533-0.533 0.267-1.067 0.4-1.667 0.4zM9 3.867c-2.2 1.267-1.8 7.533 2.4 14.8s9.4 10.733 11.6 9.467c1.133-0.667 1.533-2.533 1.2-5.2-0.4-2.867-1.667-6.267-3.6-9.6-4.2-7.267-9.4-10.733-11.6-9.467z"></path>
<path fill="#80deea" style="fill: var(--color7, #80deea)" d="M18.667 16c0 1.473-1.194 2.667-2.667 2.667s-2.667-1.194-2.667-2.667c0-1.473 1.194-2.667 2.667-2.667s2.667 1.194 2.667 2.667z"></path>
</symbol>
<symbol id="icon-npm" viewBox="0 0 32 32">
<path fill="#d50000" style="fill: var(--color8, #d50000)" d="M0 10h32v11.333h-16v2h-7.333v-2h-8.667v-11.333z"></path>
<path fill="#fff" style="fill: var(--color9, #fff)" d="M2 19.333h3.333v-5.333h2v5.333h1.333v-7.333h-6.667zM10.667 12v9.333h3.333v-2h3.333v-7.333h-6.667zM16 17.333h-2v-3.333h2v3.333zM19.333 12v7.333h3.333v-5.333h2v5.333h2v-5.333h2v5.333h1.333v-7.333z"></path>
</symbol>
<symbol id="icon-nodejs" viewBox="0 0 32 32">
<path fill="#388e3c" style="fill: var(--color10, #388e3c)" d="M11.469 12.748l-3.271 1.81c-0.118 0.064-0.197 0.187-0.198 0.328v3.622c0 0.135 0.075 0.26 0.198 0.328l3.272 1.811c0.122 0.067 0.273 0.067 0.395 0l3.271-1.811c0.117-0.065 0.195-0.187 0.197-0.328v-3.622c-0.001-0.141-0.080-0.264-0.196-0.327l-0.002-0.001-3.271-1.81c-0.057-0.032-0.125-0.051-0.198-0.051s-0.141 0.019-0.2 0.052l0.002-0.001zM28.301 16.009l-0.545 0.301c-0.020 0.011-0.033 0.031-0.033 0.055 0 0 0 0 0 0v0 0.604c0 0.023 0.013 0.043 0.033 0.055l0.545 0.302c0.009 0.005 0.021 0.009 0.033 0.009s0.023-0.003 0.033-0.009l-0 0 0.545-0.302c0.019-0.011 0.032-0.031 0.033-0.055v-0.604c-0-0.024-0.014-0.044-0.033-0.055l-0-0-0.545-0.301c-0.010-0.006-0.021-0.009-0.033-0.009s-0.023 0.003-0.033 0.009z"></path>
<path fill="#37474f" style="fill: var(--color11, #37474f)" d="M23.834 8.909l-1.593-0.889c-0.023-0.013-0.050-0.020-0.079-0.020-0.089 0-0.162 0.072-0.162 0.162v0l-0.001 5.368-1.469-0.813c-0.057-0.032-0.125-0.051-0.198-0.051s-0.141 0.019-0.2 0.052l0.002-0.001h0.001l-3.271 1.81c-0.118 0.064-0.197 0.186-0.198 0.327v3.622c0 0.135 0.075 0.26 0.198 0.328l3.272 1.811c0.122 0.067 0.273 0.067 0.395 0l3.271-1.811c0.117-0.065 0.196-0.187 0.197-0.328v-9.285c-0-0.121-0.066-0.226-0.164-0.282l-0.002-0.001zM21.911 17.639l-1.487 0.823c-0.026 0.014-0.057 0.023-0.090 0.023s-0.064-0.009-0.091-0.023l0.001 0-1.487-0.823c-0.054-0.029-0.090-0.085-0.091-0.149v-1.647c0-0.061 0.034-0.118 0.090-0.149l1.487-0.823c0.026-0.014 0.057-0.022 0.090-0.022s0.064 0.008 0.091 0.023l-0.001-0.001 1.487 0.823c0.054 0.030 0.089 0.086 0.090 0.15v1.647c-0.001 0.064-0.036 0.119-0.088 0.148l-0.001 0z"></path>
<path fill="#2e7d32" style="fill: var(--color12, #2e7d32)" d="M11.469 12.748l-3.469 5.76c0 0.135 0.075 0.26 0.198 0.328l3.272 1.811c0.122 0.067 0.273 0.067 0.395 0l3.468-5.761c-0.001-0.141-0.080-0.264-0.196-0.327l-0.002-0.001-3.271-1.81c-0.057-0.032-0.125-0.051-0.198-0.051s-0.141 0.019-0.2 0.052l0.002-0.001z"></path>
<path fill="#4caf50" style="fill: var(--color13, #4caf50)" d="M11.469 12.748l-3.271 1.81c-0.118 0.064-0.197 0.187-0.198 0.328v0l3.469 5.761c0.122 0.067 0.273 0.067 0.395 0l3.271-1.811c0.117-0.065 0.196-0.187 0.197-0.328v-0l-3.469-5.76c-0.057-0.032-0.125-0.051-0.198-0.051s-0.141 0.019-0.2 0.052l0.002-0.001z"></path>
<path fill="#37474f" style="fill: var(--color11, #37474f)" d="M31.802 14.527l-3.271-1.81c-0.057-0.032-0.125-0.051-0.198-0.051s-0.141 0.019-0.2 0.052l0.002-0.001h0.001l-3.271 1.81c-0.119 0.066-0.198 0.192-0.198 0.335 0 0 0 0 0 0v0 3.607c0 0.139 0.076 0.268 0.198 0.335l3.272 1.811c0.057 0.032 0.125 0.051 0.198 0.051s0.141-0.019 0.2-0.052l-0.002 0.001 1.509-0.835c0.062-0.035 0.103-0.1 0.103-0.175s-0.042-0.141-0.103-0.175l-0.001-0.001-3.283-1.791c-0.054-0.030-0.090-0.087-0.090-0.152v-1.644c0-0.061 0.033-0.118 0.087-0.147l1.489-0.824c0.026-0.014 0.057-0.022 0.090-0.022s0.064 0.008 0.091 0.023l-0.001-0.001 1.49 0.825c0.053 0.029 0.087 0.086 0.087 0.147v1.341c0 0 0 0 0 0 0 0.089 0.072 0.161 0.161 0.161 0.030 0 0.058-0.008 0.082-0.023l-0.001 0 1.599-0.929c0.096-0.057 0.16-0.16 0.16-0.278v0-1.253c0-0 0-0 0-0.001 0-0.144-0.079-0.269-0.196-0.335l-0.002-0.001zM7.135 14.527l-3.271-1.81c-0.057-0.032-0.125-0.051-0.198-0.051s-0.141 0.019-0.2 0.052l0.002-0.001h0.001l-3.271 1.81c-0.119 0.066-0.198 0.192-0.198 0.335 0 0 0 0 0 0v0 4.977c0 0 0 0 0 0 0 0.089 0.072 0.161 0.161 0.161 0.030 0 0.058-0.008 0.082-0.023l-0.001 0 1.599-0.929c0.096-0.057 0.159-0.16 0.159-0.277 0-0 0-0 0-0.001v0-2.929c0-0.061 0.033-0.118 0.087-0.147l1.49-0.824c0.026-0.014 0.057-0.022 0.090-0.022s0.064 0.008 0.091 0.023l-0.001-0.001 1.49 0.825c0.053 0.029 0.087 0.086 0.087 0.147v2.929c0 0 0 0.001 0 0.001 0 0.118 0.064 0.221 0.159 0.276l0.002 0.001 1.599 0.929c0.023 0.014 0.051 0.022 0.081 0.022s0.057-0.008 0.081-0.021l-0.001 0c0.048-0.029 0.080-0.081 0.080-0.14v-4.976c0-0 0-0 0-0 0-0.144-0.079-0.269-0.196-0.335l-0.002-0.001z"></path>
</symbol>
<symbol id="icon-javascript" viewBox="0 0 32 32">
<path fill="#ffd600" style="fill: var(--color14, #ffd600)" d="M4 28v-24h24v24h-24z"></path>
<path fill="#000001" style="fill: var(--color15, #000001)" d="M19.692 21.965c0.461 0.749 0.963 1.467 2.025 1.467 0.892 0 1.36-0.443 1.36-1.057 0-0.734-0.484-0.995-1.465-1.422l-0.538-0.229c-1.553-0.659-2.585-1.484-2.585-3.227 0-1.607 1.23-2.829 3.152-2.829 1.369 0 2.352 0.474 3.061 1.715l-1.676 1.071c-0.369-0.659-0.767-0.918-1.385-0.918-0.631 0-1.030 0.398-1.030 0.918 0 0.643 0.4 0.903 1.323 1.301l0.538 0.229c1.83 0.779 2.862 1.575 2.862 3.365 0 1.928-1.523 2.985-3.567 2.985-1.999 0-3.135-1.003-3.767-2.245l1.692-1.123zM11.968 22.019c0.337 0.604 0.85 1.069 1.587 1.069 0.705 0 1.111-0.279 1.111-1.362v-7.059h2.222v7.401c0 2.245-1.302 3.266-3.203 3.266-1.718 0-2.958-1.164-3.463-2.245l1.746-1.069z"></path>
</symbol>
<symbol id="icon-html-5" viewBox="0 0 32 32">
<path fill="#e65100" style="fill: var(--color16, #e65100)" d="M27.333 3.333h-22.667l2 22.667 9.333 2.667 9.333-2.667 2-22.667z"></path>
<path fill="#ff6d00" style="fill: var(--color17, #ff6d00)" d="M16 5.333v21.267l7.467-2.133 1.667-19.133z"></path>
<path fill="#fff" style="fill: var(--color9, #fff)" d="M16 16.667v-2.667h5.733l-0.467 7.667-5.267 1.733v-2.8l2.733-0.933 0.2-3h-2.933zM21.933 11.333l0.2-2.667h-6.133v2.667h5.933z"></path>
<path fill="#eee" style="fill: var(--color18, #eee)" d="M16 20.6v2.8l-5.267-1.733-0.267-3.667h2.667l0.133 1.667 2.733 0.933zM12.733 11.333h3.267v-2.667h-6.067l0.467 8h5.6v-2.667h-3.067l-0.2-2.667z"></path>
</symbol>
<symbol id="icon-github" viewBox="0 0 32 32">
<path d="M16 3.2c-7.069 0-12.8 5.731-12.8 12.8 0 5.998 4.13 11.017 9.698 12.405-0.062-0.178-0.098-0.384-0.098-0.598 0-0.008 0-0.017 0-0.025v0.001-2.188h-1.609c-0.876 0-1.654-0.377-2.032-1.076-0.419-0.778-0.492-1.967-1.531-2.694-0.308-0.242-0.074-0.518 0.282-0.481 0.656 0.186 1.2 0.636 1.712 1.303 0.51 0.669 0.75 0.82 1.702 0.82 0.462 0 1.153-0.027 1.804-0.129 0.35-0.889 0.955-1.707 1.694-2.093-4.262-0.438-6.297-2.559-6.297-5.438 0-1.239 0.528-2.438 1.425-3.449-0.294-1.003-0.665-3.047 0.113-3.826 1.918 0 3.077 1.244 3.356 1.58 0.923-0.325 1.987-0.513 3.095-0.513 0.005 0 0.009 0 0.014 0h-0.001c1.105 0 2.159 0.186 3.117 0.515 0.275-0.334 1.436-1.582 3.358-1.582 0.781 0.78 0.406 2.833 0.109 3.834 0.892 1.008 1.417 2.204 1.417 3.441 0 2.877-2.031 4.996-6.287 5.437 1.171 0.611 2.026 2.329 2.026 3.622v2.916c0 0.111-0.025 0.191-0.037 0.286 4.988-1.748 8.571-6.484 8.571-12.069 0-7.069-5.731-12.8-12.8-12.8z"></path>
</symbol>
<symbol id="icon-git" viewBox="0 0 32 32">
<path fill="#f4511e" style="fill: var(--color19, #f4511e)" d="M28.133 14.733l-10.867-10.867c-0.333-0.333-0.8-0.533-1.267-0.533s-0.933 0.2-1.267 0.533l-2.333 2.333 2.733 2.733c0.267-0.133 0.533-0.2 0.867-0.2 1.133 0 2 0.867 2 2 0 0.333-0.067 0.6-0.2 0.867l2.667 2.667c0.267-0.133 0.533-0.2 0.867-0.2 1.133 0 2 0.867 2 2s-0.867 2-2 2-2-0.867-2-2c0-0.333 0.067-0.6 0.2-0.867l-2.667-2.667c-0.067 0-0.133 0.067-0.2 0.067v6.933c0.8 0.267 1.333 1 1.333 1.867 0 1.133-0.867 2-2 2s-2-0.867-2-2c0-0.867 0.533-1.6 1.333-1.867v-7c-0.8-0.267-1.333-1-1.333-1.867 0-0.333 0.067-0.6 0.2-0.867l-2.733-2.733-7.6 7.667c-0.333 0.333-0.533 0.8-0.533 1.267s0.2 0.933 0.533 1.267l10.867 10.867c0.333 0.333 0.8 0.533 1.267 0.533s0.933-0.2 1.267-0.533l10.867-10.867c0.333-0.333 0.533-0.8 0.533-1.267s-0.2-0.933-0.533-1.267z"></path>
</symbol>
<symbol id="icon-figma" viewBox="0 0 32 32">
<path fill="#e64a19" style="fill: var(--color20, #e64a19)" d="M17.333 11.333h-5.333c-2.577 0-4.667-2.089-4.667-4.667s2.089-4.667 4.667-4.667v0h5.333v9.333z"></path>
<path fill="#7c4dff" style="fill: var(--color21, #7c4dff)" d="M16.667 20.667h-4.667c-2.577 0-4.667-2.089-4.667-4.667s2.089-4.667 4.667-4.667v0h4.667v9.333z"></path>
<path fill="#66bb6a" style="fill: var(--color22, #66bb6a)" d="M12 30c-2.577 0-4.667-2.089-4.667-4.667s2.089-4.667 4.667-4.667v0h4.667v4.667c0 2.577-2.089 4.667-4.667 4.667v0z"></path>
<path fill="#ff7043" style="fill: var(--color23, #ff7043)" d="M21.333 11.333h-4.667v-9.333h4.667c2.577 0 4.667 2.089 4.667 4.667s-2.089 4.667-4.667 4.667v0z"></path>
<path fill="#29b6f6" style="fill: var(--color3, #29b6f6)" d="M26 16c0 2.577-2.089 4.667-4.667 4.667s-4.667-2.089-4.667-4.667c0-2.577 2.089-4.667 4.667-4.667s4.667 2.089 4.667 4.667z"></path>
</symbol>
<symbol id="icon-css3" viewBox="0 0 32 32">
<path fill="#0277bd" style="fill: var(--color4, #0277bd)" d="M27.333 3.333h-22.667l2 22.667 9.333 2.667 9.333-2.667 2-22.667z"></path>
<path fill="#039be5" style="fill: var(--color24, #039be5)" d="M16 5.333v21.267l7.467-2.133 1.667-19.133z"></path>
<path fill="#fff" style="fill: var(--color9, #fff)" d="M22.067 8.667h-6.067v2.667h3.267l-0.2 2.667h-3.067v2.667h2.933l-0.2 3-2.733 0.933v2.8l5.267-1.733 0.467-7.667z"></path>
<path fill="#eee" style="fill: var(--color18, #eee)" d="M16 8.667v2.667h-5.933l-0.2-2.667h6.133zM12.933 14l0.133 2.667h2.933v-2.667h-3.067zM13.2 18h-2.667l0.2 3.667 5.267 1.733v-2.8l-2.733-0.933-0.067-1.667z"></path>
</symbol>
<symbol id="icon-angularjs" viewBox="0 0 32 32">
<path fill="#bdbdbd" style="fill: var(--color25, #bdbdbd)" d="M15.955 1.333l-13.955 4.857 2.205 18.082 11.765 6.395 11.825-6.481 2.205-18.081z"></path>
<path fill="#b71c1c" style="fill: var(--color26, #b71c1c)" d="M28.545 7.018l-12.545-4.261v26.373l10.555-5.785z"></path>
<path fill="#dd2c00" style="fill: var(--color27, #dd2c00)" d="M15.961 2.743l-12.507 4.353 1.991 16.333 10.522 5.719 0.033-0.017v-26.373z"></path>
<path fill="#bdbdbd" style="fill: var(--color25, #bdbdbd)" d="M16 3.997v6.339l5.719 12.331h2.939z"></path>
<path fill="#eee" style="fill: var(--color18, #eee)" d="M7.342 22.667h2.939l5.719-12.331v-6.339z"></path>
<path fill="#bdbdbd" style="fill: var(--color25, #bdbdbd)" d="M16 16h4v2.667h-4z"></path>
<path fill="#eee" style="fill: var(--color18, #eee)" d="M12 16h4v2.667h-4z"></path>
</symbol>
<symbol id="icon-phone1" viewBox="0 0 32 32">
<path d="M22.667 25.333h-13.333v-18.667h13.333v18.667zM22.667 1.333h-13.333c-1.48 0-2.667 1.187-2.667 2.667v24c0 0.707 0.281 1.385 0.781 1.886s1.178 0.781 1.886 0.781h13.333c0.707 0 1.385-0.281 1.886-0.781s0.781-1.178 0.781-1.886v-24c0-0.707-0.281-1.386-0.781-1.886s-1.178-0.781-1.886-0.781z"></path>
</symbol>
<symbol id="icon-email" viewBox="0 0 32 32">
<path d="M29.333 7.333h-17.333c-1.467 0-2.667 1.2-2.667 2.667v12c0 0.707 0.281 1.385 0.781 1.886s1.178 0.781 1.886 0.781h17.333c1.48 0 2.667-1.187 2.667-2.667v-12c0-0.707-0.281-1.386-0.781-1.886s-1.178-0.781-1.886-0.781v0zM29.333 22h-17.333v-9.773l8.667 4.44 8.667-4.44v9.773zM20.667 14.413l-8.667-4.413h17.333l-8.667 4.413zM6.667 22c0 0.227 0.040 0.44 0.067 0.667h-5.4c-0.736 0-1.333-0.6-1.333-1.333s0.597-1.333 1.333-1.333h5.333v2zM4 9.333h2.733c-0.027 0.227-0.067 0.44-0.067 0.667v2h-2.667c-0.733 0-1.333-0.6-1.333-1.333s0.6-1.333 1.333-1.333zM1.333 16c0-0.733 0.6-1.333 1.333-1.333h4v2.667h-4c-0.733 0-1.333-0.6-1.333-1.333z"></path>
</symbol>
</defs>
</svg>
